<svg xmlns="http://www.w3.org/2000/svg" width="900" height="300" viewBox="0 0 900 300" role="img" aria-label="Results: rank 5, Kaya AI IIT Hackathon 2026; rank 9, Kaggle Agri Image Super-Resolution; top 10, TrackShift Innovation Challenge; top 40, IIT Delhi Innov8 Challenge; top 1.5K, Amazon ML Challenge">
<defs>
  <linearGradient id="bg" x1="0" y1="0" x2="1" y2="1"><stop offset="0" stop-color="#060B18"/><stop offset="1" stop-color="#0C1630"/></linearGradient>
  <pattern id="grid" width="24" height="24" patternUnits="userSpaceOnUse"><path d="M24 0H0V24" fill="none" stroke="#FFFFFF" stroke-opacity=".03"/></pattern>
  <linearGradient id="rule" x1="0" y1="0" x2="1" y2="0"><stop offset="0" stop-color="#FBBF24" stop-opacity=".8"/><stop offset=".45" stop-color="#FBBF24" stop-opacity=".15"/><stop offset="1" stop-color="#FBBF24" stop-opacity="0"/></linearGradient>
  <linearGradient id="scanline" x1="0" y1="0" x2="0" y2="1"><stop offset="0" stop-color="#FBBF24" stop-opacity="0"/><stop offset="1" stop-color="#FBBF24" stop-opacity=".09"/></linearGradient>
  <filter id="glow" x="-50%" y="-50%" width="200%" height="200%"><feGaussianBlur stdDeviation="3" result="b"/><feMerge><feMergeNode in="b"/><feMergeNode in="SourceGraphic"/></feMerge></filter>
  <clipPath id="card"><rect width="900" height="300" rx="16"/></clipPath>
</defs>
<style>
  text { font-family: -apple-system, "Segoe UI", Ubuntu, "Helvetica Neue", Arial, sans-serif; }
  .t { font: 600 13px ui-monospace, SFMono-Regular, "JetBrains Mono", "Cascadia Code", Consolas, "Liberation Mono", monospace; letter-spacing: 2.6px; fill: #E8EEF9; }
  .code { fill: #FBBF24; }
  .stamp { font: 10.5px ui-monospace, SFMono-Regular, "JetBrains Mono", "Cascadia Code", Consolas, "Liberation Mono", monospace; letter-spacing: 1.6px; fill: #8A97B4; }
  .lbl { font: 11px ui-monospace, SFMono-Regular, "JetBrains Mono", "Cascadia Code", Consolas, "Liberation Mono", monospace; letter-spacing: 1.4px; fill: #8A97B4; }
  .val { font-size: 24px; font-weight: 700; fill: #E8EEF9; font-variant-numeric: tabular-nums; }
  .small { font: 10.5px ui-monospace, SFMono-Regular, "JetBrains Mono", "Cascadia Code", Consolas, "Liberation Mono", monospace; fill: #8A97B4; }
  .note { font-size: 13px; fill: #B9C5DD; }
  .strong { fill: #E8EEF9; font-weight: 650; }
  .scan { animation: scan 7s linear infinite; }
  @keyframes scan { from { transform: translateY(-80px); } to { transform: translateY(300px); } }
  .blink { animation: blink 1.6s steps(2, start) infinite; }
  @keyframes blink { to { opacity: .15; } }
  .spin { transform-box: fill-box; transform-origin: center; animation: spin 60s linear infinite; }
  .spin-r { transform-box: fill-box; transform-origin: center; animation: spin 90s linear infinite reverse; }
  @keyframes spin { to { transform: rotate(360deg); } }
  @keyframes fade { from { opacity: 0; } }
  .cup { animation: cup 1.8s cubic-bezier(.3,.7,.2,1) both; }
  @keyframes cup { from { transform: translateY(var(--h)); } }
  .rk { font-weight: 800; fill: #E8EEF9; font-variant-numeric: tabular-nums; } .pop { animation: pop .8s cubic-bezier(.2,.8,.2,1.2) both; transform-box: fill-box; transform-origin: center; } @keyframes pop { from { opacity: 0; transform: scale(.8); } } .draw { stroke-dasharray: 300; animation: draw 1.4s cubic-bezier(.6,0,.2,1) both; } @keyframes draw { from { stroke-dashoffset: 300; fill-opacity: 0; } } .pulse { animation: pulse 2.6s ease-in-out infinite both; } @keyframes pulse { 0%, 100% { opacity: 0; } 50% { opacity: 1; } } .reel { animation: reel 1.6s cubic-bezier(.15,.6,.2,1) both; } @keyframes reel { from { transform: translateY(var(--h)); } } .glint { animation: glint 5s ease-in-out infinite; } @keyframes glint { 0% { transform: skewX(-18deg) translateX(0); } 30%, 100% { transform: skewX(-18deg) translateX(190px); } } .spark { opacity: 0; animation: spark 3.3s ease-out infinite; } @keyframes spark { 0% { opacity: 0; transform: translateY(0); } 15% { opacity: 1; } 100% { opacity: 0; transform: translateY(-46px); } } .orb { animation: spin 8s linear infinite; } .rise { animation: rise .8s cubic-bezier(.2,.8,.2,1) both; } @keyframes rise { from { opacity: 0; transform: translateY(8px); } } .link { stroke-dasharray: 60 900; animation: link 3.5s linear infinite; } @keyframes link { from { stroke-dashoffset: 60; } to { stroke-dashoffset: -900; } } .star { opacity: .12; animation: star 4s ease-in-out infinite; } @keyframes star { 50% { opacity: .75; } } .rays { opacity: .09; animation: spin 30s linear infinite; } .holo { animation: fade .8s ease both; } .flick { animation: flick 3s ease-in-out infinite; } @keyframes flick { 0%, 100% { opacity: .8; } 45% { opacity: .35; } 50% { opacity: .9; } 55% { opacity: .5; } } .pedping { transform-box: fill-box; transform-origin: center; opacity: 0; animation: pedping 2.8s ease-out infinite; } @keyframes pedping { 0% { transform: scale(1); opacity: .9; } 100% { transform: scale(1.6); opacity: 0; } } .conf { transform-box: fill-box; transform-origin: center; opacity: 0; animation: conf 6s cubic-bezier(.1,.7,.3,1) infinite; } @keyframes conf { 0% { opacity: 0; transform: translate(0, 0) rotate(0); } 2% { opacity: 1; } 28% { opacity: 0; transform: translate(var(--dx), var(--dy)) rotate(220deg); } 100% { opacity: 0; transform: translate(var(--dx), var(--dy)) rotate(220deg); } } .runa { stroke-dasharray: 8 42; animation: runa 8s linear infinite; } @keyframes runa { from { stroke-dashoffset: 50; } to { stroke-dashoffset: 0; } }
  @media (prefers-reduced-motion: reduce) { * { animation: none !important; } .scan { display: none; } }
</style>
<g clip-path="url(#card)">
  <rect width="900" height="300" fill="url(#bg)"/>
  <rect width="900" height="300" fill="url(#grid)"/>
  <rect class="scan" x="0" y="0" width="900" height="80" fill="url(#scanline)"/>
</g>
<rect x=".5" y=".5" width="899" height="299" rx="15.5" fill="none" stroke="#1C2A48"/>
<g fill="none" stroke="#FBBF24" stroke-opacity=".8" stroke-width="1.5"><path d="M10,26 L10,10 L26,10"/><path d="M890,26 L890,10 L874,10"/><path d="M10,274 L10,290 L26,290"/><path d="M890,274 L890,290 L874,290"/></g>
<circle cx="31" cy="34" r="3.5" fill="#FBBF24" class="blink"/>
<text x="44" y="38.5" class="t"><tspan class="code">02 //</tspan> MISSION RECORD</text>
<text x="872" y="38.5" class="stamp" text-anchor="end">SYNC 04 OCT 2026 · IST</text>
<rect x="28" y="52" width="844" height="1" fill="url(#rule)"/>
<defs><linearGradient id="link" x1="0" y1="0" x2="1" y2="0"><stop offset="0.00" stop-color="#FBBF24"/><stop offset="0.25" stop-color="#38BDF8"/><stop offset="0.50" stop-color="#E879F9"/><stop offset="0.75" stop-color="#A3E635"/><stop offset="1.00" stop-color="#A78BFA"/></linearGradient><linearGradient id="glint" x1="0" y1="0" x2="1" y2="0"><stop offset="0" stop-color="#FFFFFF" stop-opacity="0"/><stop offset=".5" stop-color="#FFFFFF" stop-opacity=".35"/><stop offset="1" stop-color="#FFFFFF" stop-opacity="0"/></linearGradient><clipPath id="hx0"><polygon points="112.4,78.0 155.7,103.0 155.7,153.0 112.4,178.0 69.1,153.0 69.1,103.0"/></clipPath><clipPath id="slot0"><rect x="68.4" y="120" width="88" height="36"/></clipPath><linearGradient id="beam0" x1="0" y1="1" x2="0" y2="0"><stop offset="0" stop-color="#FBBF24" stop-opacity=".45"/><stop offset="1" stop-color="#FBBF24" stop-opacity="0"/></linearGradient><clipPath id="hx1"><polygon points="281.2,78.0 324.5,103.0 324.5,153.0 281.2,178.0 237.9,153.0 237.9,103.0"/></clipPath><clipPath id="slot1"><rect x="237.2" y="120" width="88" height="36"/></clipPath><linearGradient id="beam1" x1="0" y1="1" x2="0" y2="0"><stop offset="0" stop-color="#38BDF8" stop-opacity=".45"/><stop offset="1" stop-color="#38BDF8" stop-opacity="0"/></linearGradient><clipPath id="hx2"><polygon points="450.0,78.0 493.3,103.0 493.3,153.0 450.0,178.0 406.7,153.0 406.7,103.0"/></clipPath><clipPath id="slot2"><rect x="406.0" y="120" width="88" height="36"/></clipPath><linearGradient id="beam2" x1="0" y1="1" x2="0" y2="0"><stop offset="0" stop-color="#E879F9" stop-opacity=".45"/><stop offset="1" stop-color="#E879F9" stop-opacity="0"/></linearGradient><clipPath id="hx3"><polygon points="618.8,78.0 662.1,103.0 662.1,153.0 618.8,178.0 575.5,153.0 575.5,103.0"/></clipPath><clipPath id="slot3"><rect x="574.8" y="120" width="88" height="36"/></clipPath><linearGradient id="beam3" x1="0" y1="1" x2="0" y2="0"><stop offset="0" stop-color="#A3E635" stop-opacity=".45"/><stop offset="1" stop-color="#A3E635" stop-opacity="0"/></linearGradient><clipPath id="hx4"><polygon points="787.6,78.0 830.9,103.0 830.9,153.0 787.6,178.0 744.3,153.0 744.3,103.0"/></clipPath><clipPath id="slot4"><rect x="743.6" y="120" width="88" height="36"/></clipPath><linearGradient id="beam4" x1="0" y1="1" x2="0" y2="0"><stop offset="0" stop-color="#A78BFA" stop-opacity=".45"/><stop offset="1" stop-color="#A78BFA" stop-opacity="0"/></linearGradient></defs>
<g><circle cx="20.0" cy="58.0" r="0.60" fill="#FFFFFF" class="star" style="animation-delay:0.00s;animation-duration:3s"/><circle cx="139.3" cy="101.7" r="0.95" fill="#FFFFFF" class="star" style="animation-delay:0.57s;animation-duration:4s"/><circle cx="258.6" cy="145.4" r="1.30" fill="#FFFFFF" class="star" style="animation-delay:1.14s;animation-duration:5s"/><circle cx="377.9" cy="189.1" r="0.60" fill="#FFFFFF" class="star" style="animation-delay:1.71s;animation-duration:6s"/><circle cx="497.2" cy="232.8" r="0.95" fill="#FFFFFF" class="star" style="animation-delay:2.28s;animation-duration:3s"/><circle cx="616.5" cy="276.5" r="1.30" fill="#FFFFFF" class="star" style="animation-delay:2.85s;animation-duration:4s"/><circle cx="735.8" cy="96.2" r="0.60" fill="#FFFFFF" class="star" style="animation-delay:3.42s;animation-duration:5s"/><circle cx="855.1" cy="139.9" r="0.95" fill="#FFFFFF" class="star" style="animation-delay:3.99s;animation-duration:6s"/><circle cx="114.4" cy="183.6" r="1.30" fill="#FFFFFF" class="star" style="animation-delay:4.56s;animation-duration:3s"/><circle cx="233.7" cy="227.3" r="0.60" fill="#FFFFFF" class="star" style="animation-delay:0.13s;animation-duration:4s"/><circle cx="353.0" cy="271.0" r="0.95" fill="#FFFFFF" class="star" style="animation-delay:0.70s;animation-duration:5s"/><circle cx="472.3" cy="90.7" r="1.30" fill="#FFFFFF" class="star" style="animation-delay:1.27s;animation-duration:6s"/><circle cx="591.6" cy="134.4" r="0.60" fill="#FFFFFF" class="star" style="animation-delay:1.84s;animation-duration:3s"/><circle cx="710.9" cy="178.1" r="0.95" fill="#FFFFFF" class="star" style="animation-delay:2.41s;animation-duration:4s"/><circle cx="830.2" cy="221.8" r="1.30" fill="#FFFFFF" class="star" style="animation-delay:2.98s;animation-duration:5s"/><circle cx="89.5" cy="265.5" r="0.60" fill="#FFFFFF" class="star" style="animation-delay:3.55s;animation-duration:6s"/><circle cx="208.8" cy="85.2" r="0.95" fill="#FFFFFF" class="star" style="animation-delay:4.12s;animation-duration:3s"/><circle cx="328.1" cy="128.9" r="1.30" fill="#FFFFFF" class="star" style="animation-delay:4.69s;animation-duration:4s"/><circle cx="447.4" cy="172.6" r="0.60" fill="#FFFFFF" class="star" style="animation-delay:0.26s;animation-duration:5s"/><circle cx="566.7" cy="216.3" r="0.95" fill="#FFFFFF" class="star" style="animation-delay:0.83s;animation-duration:6s"/><circle cx="686.0" cy="260.0" r="1.30" fill="#FFFFFF" class="star" style="animation-delay:1.40s;animation-duration:3s"/><circle cx="805.3" cy="79.7" r="0.60" fill="#FFFFFF" class="star" style="animation-delay:1.97s;animation-duration:4s"/><circle cx="64.6" cy="123.4" r="0.95" fill="#FFFFFF" class="star" style="animation-delay:2.54s;animation-duration:5s"/><circle cx="183.9" cy="167.1" r="1.30" fill="#FFFFFF" class="star" style="animation-delay:3.11s;animation-duration:6s"/><circle cx="303.2" cy="210.8" r="0.60" fill="#FFFFFF" class="star" style="animation-delay:3.68s;animation-duration:3s"/><circle cx="422.5" cy="254.5" r="0.95" fill="#FFFFFF" class="star" style="animation-delay:4.25s;animation-duration:4s"/><circle cx="541.8" cy="74.2" r="1.30" fill="#FFFFFF" class="star" style="animation-delay:4.82s;animation-duration:5s"/><circle cx="661.1" cy="117.9" r="0.60" fill="#FFFFFF" class="star" style="animation-delay:0.39s;animation-duration:6s"/><circle cx="780.4" cy="161.6" r="0.95" fill="#FFFFFF" class="star" style="animation-delay:0.96s;animation-duration:3s"/><circle cx="39.7" cy="205.3" r="1.30" fill="#FFFFFF" class="star" style="animation-delay:1.53s;animation-duration:4s"/><circle cx="159.0" cy="249.0" r="0.60" fill="#FFFFFF" class="star" style="animation-delay:2.10s;animation-duration:5s"/><circle cx="278.3" cy="68.7" r="0.95" fill="#FFFFFF" class="star" style="animation-delay:2.67s;animation-duration:6s"/><circle cx="397.6" cy="112.4" r="1.30" fill="#FFFFFF" class="star" style="animation-delay:3.24s;animation-duration:3s"/><circle cx="516.9" cy="156.1" r="0.60" fill="#FFFFFF" class="star" style="animation-delay:3.81s;animation-duration:4s"/><circle cx="636.2" cy="199.8" r="0.95" fill="#FFFFFF" class="star" style="animation-delay:4.38s;animation-duration:5s"/><circle cx="755.5" cy="243.5" r="1.30" fill="#FFFFFF" class="star" style="animation-delay:4.95s;animation-duration:6s"/><circle cx="874.8" cy="63.2" r="0.60" fill="#FFFFFF" class="star" style="animation-delay:0.52s;animation-duration:3s"/><circle cx="134.1" cy="106.9" r="0.95" fill="#FFFFFF" class="star" style="animation-delay:1.09s;animation-duration:4s"/><circle cx="253.4" cy="150.6" r="1.30" fill="#FFFFFF" class="star" style="animation-delay:1.66s;animation-duration:5s"/><circle cx="372.7" cy="194.3" r="0.60" fill="#FFFFFF" class="star" style="animation-delay:2.23s;animation-duration:6s"/></g>
<line x1="112.4" y1="128" x2="787.6" y2="128" stroke="#1C2A48" stroke-width="2"/>
<line x1="112.4" y1="128" x2="787.6" y2="128" stroke="url(#link)" stroke-width="2.4" class="link" filter="url(#glow)"/>
<g class="rays" style="transform-origin:112.4px 128px;animation-duration:26s"><path d="M112.4,38.0 A90,90 0 0 1 123.4,38.7 L119.5,70.4 A58,58 0 0 0 112.4,70.0 Z" fill="#FBBF24"/><path d="M157.4,50.1 A90,90 0 0 1 166.6,56.1 L147.3,81.7 A58,58 0 0 0 141.4,77.8 Z" fill="#FBBF24"/><path d="M190.3,83.0 A90,90 0 0 1 195.2,92.8 L165.8,105.3 A58,58 0 0 0 162.6,99.0 Z" fill="#FBBF24"/><path d="M202.4,128.0 A90,90 0 0 1 201.7,139.0 L170.0,135.1 A58,58 0 0 0 170.4,128.0 Z" fill="#FBBF24"/><path d="M190.3,173.0 A90,90 0 0 1 184.3,182.2 L158.7,162.9 A58,58 0 0 0 162.6,157.0 Z" fill="#FBBF24"/><path d="M157.4,205.9 A90,90 0 0 1 147.6,210.8 L135.1,181.4 A58,58 0 0 0 141.4,178.2 Z" fill="#FBBF24"/><path d="M112.4,218.0 A90,90 0 0 1 101.4,217.3 L105.3,185.6 A58,58 0 0 0 112.4,186.0 Z" fill="#FBBF24"/><path d="M67.4,205.9 A90,90 0 0 1 58.2,199.9 L77.5,174.3 A58,58 0 0 0 83.4,178.2 Z" fill="#FBBF24"/><path d="M34.5,173.0 A90,90 0 0 1 29.6,163.2 L59.0,150.7 A58,58 0 0 0 62.2,157.0 Z" fill="#FBBF24"/><path d="M22.4,128.0 A90,90 0 0 1 23.1,117.0 L54.8,120.9 A58,58 0 0 0 54.4,128.0 Z" fill="#FBBF24"/><path d="M34.5,83.0 A90,90 0 0 1 40.5,73.8 L66.1,93.1 A58,58 0 0 0 62.2,99.0 Z" fill="#FBBF24"/><path d="M67.4,50.1 A90,90 0 0 1 77.2,45.2 L89.7,74.6 A58,58 0 0 0 83.4,77.8 Z" fill="#FBBF24"/></g>
<g class="holo" style="animation-delay:1.20s">
  <polygon points="74.4,194 150.4,194 132.4,128 92.4,128" fill="url(#beam0)" class="flick" style="animation-delay:0.0s"/>
  <ellipse cx="112.4" cy="194" rx="40" ry="7" fill="#FBBF24" fill-opacity=".12" stroke="#FBBF24" stroke-width="1.4" filter="url(#glow)"/>
  <ellipse cx="112.4" cy="194" rx="40" ry="7" fill="none" stroke="#FBBF24" class="pedping" style="animation-delay:1.60s"/>
</g>
<g class="pop" style="animation-delay:0.20s">
  <circle cx="112.4" cy="128" r="72" fill="none" stroke="#FBBF24" stroke-opacity=".45" stroke-dasharray="1 7" class="spin-r"/>
  <g class="orb" style="transform-origin:112.4px 128px;animation-duration:8.0s"><circle cx="112.4" cy="56" r="3" fill="#FBBF24" filter="url(#glow)"/></g>
  <polygon points="112.4,69.0 163.5,98.5 163.5,157.5 112.4,187.0 61.3,157.5 61.3,98.5" fill="none" stroke="#FBBF24" stroke-opacity=".25"/>
  <polygon points="112.4,78.0 155.7,103.0 155.7,153.0 112.4,178.0 69.1,153.0 69.1,103.0" fill="#060B18"/>
  <polygon points="112.4,78.0 155.7,103.0 155.7,153.0 112.4,178.0 69.1,153.0 69.1,103.0" fill="#FBBF24" fill-opacity=".1" stroke="#FBBF24" stroke-width="2" class="draw" style="animation-delay:0.20s" filter="url(#glow)"/>
  <polygon points="112.4,78.0 155.7,103.0 155.7,153.0 112.4,178.0 69.1,153.0 69.1,103.0" fill="none" stroke="#FBBF24" stroke-width="5" stroke-opacity=".35" class="pulse" style="animation-delay:1.80s"/>
  <g clip-path="url(#hx0)"><rect x="2.4" y="78" width="40" height="100" fill="url(#glint)" transform="skewX(-18)" class="glint" style="animation-delay:2.20s"/></g>
  <text x="112.4" y="112" class="small" text-anchor="middle" style="letter-spacing:2px;fill:#FBBF24">RANK</text>
  <g clip-path="url(#slot0)"><g class="reel" style="--h:252px;animation-delay:0.50s"><text x="112.4" y="146" text-anchor="middle" class="rk" style="font-size:30px">#5</text><text x="112.4" y="110" text-anchor="middle" class="rk" style="font-size:30px">#8</text><text x="112.4" y="74" text-anchor="middle" class="rk" style="font-size:30px">#1</text><text x="112.4" y="38" text-anchor="middle" class="rk" style="font-size:30px">#4</text><text x="112.4" y="2" text-anchor="middle" class="rk" style="font-size:30px">#7</text><text x="112.4" y="-34" text-anchor="middle" class="rk" style="font-size:30px">#0</text><text x="112.4" y="-70" text-anchor="middle" class="rk" style="font-size:30px">#3</text><text x="112.4" y="-106" text-anchor="middle" class="rk" style="font-size:30px">#6</text></g></g>
  <circle cx="90.4" cy="84" r="1.6" fill="#FBBF24" class="spark" style="animation-delay:1.40s"/><circle cx="104.4" cy="84" r="2.1" fill="#FBBF24" class="spark" style="animation-delay:1.95s"/><circle cx="118.4" cy="84" r="2.6" fill="#FBBF24" class="spark" style="animation-delay:2.50s"/><circle cx="130.4" cy="84" r="1.6" fill="#FBBF24" class="spark" style="animation-delay:3.05s"/><circle cx="140.4" cy="84" r="2.1" fill="#FBBF24" class="spark" style="animation-delay:3.60s"/><circle cx="82.4" cy="84" r="2.6" fill="#FBBF24" class="spark" style="animation-delay:4.15s"/>
  <rect x="109.9" y="126.8" width="5" height="2.4" rx="1" fill="#38BDF8" class="conf" style="--dx:0px;--dy:-70px;animation-delay:2.10s"/><rect x="109.9" y="126.8" width="5" height="2.4" rx="1" fill="#A78BFA" class="conf" style="--dx:49px;--dy:-67px;animation-delay:2.13s"/><rect x="109.9" y="126.8" width="5" height="2.4" rx="1" fill="#E879F9" class="conf" style="--dx:67px;--dy:-22px;animation-delay:2.16s"/><rect x="109.9" y="126.8" width="5" height="2.4" rx="1" fill="#A3E635" class="conf" style="--dx:79px;--dy:26px;animation-delay:2.19s"/><rect x="109.9" y="126.8" width="5" height="2.4" rx="1" fill="#FBBF24" class="conf" style="--dx:41px;--dy:57px;animation-delay:2.22s"/><rect x="109.9" y="126.8" width="5" height="2.4" rx="1" fill="#FB7185" class="conf" style="--dx:0px;--dy:83px;animation-delay:2.25s"/><rect x="109.9" y="126.8" width="5" height="2.4" rx="1" fill="#2DD4BF" class="conf" style="--dx:-41px;--dy:57px;animation-delay:2.28s"/><rect x="109.9" y="126.8" width="5" height="2.4" rx="1" fill="#FB923C" class="conf" style="--dx:-79px;--dy:26px;animation-delay:2.31s"/><rect x="109.9" y="126.8" width="5" height="2.4" rx="1" fill="#38BDF8" class="conf" style="--dx:-67px;--dy:-22px;animation-delay:2.34s"/><rect x="109.9" y="126.8" width="5" height="2.4" rx="1" fill="#A78BFA" class="conf" style="--dx:-49px;--dy:-67px;animation-delay:2.37s"/>
</g>
<g class="rise" style="animation-delay:0.70s">
  <text x="112.4" y="226" class="note strong" text-anchor="middle">Kaya AI IIT</text>
  <text x="112.4" y="244" class="note" text-anchor="middle">Hackathon 2026</text>
  <text x="112.4" y="264" class="small" text-anchor="middle" style="fill:#FBBF24">FIELDPILOT AI</text>
</g>
<g class="rays" style="transform-origin:281.2px 128px;animation-duration:29s"><path d="M281.2,38.0 A90,90 0 0 1 292.2,38.7 L288.3,70.4 A58,58 0 0 0 281.2,70.0 Z" fill="#38BDF8"/><path d="M326.2,50.1 A90,90 0 0 1 335.4,56.1 L316.1,81.7 A58,58 0 0 0 310.2,77.8 Z" fill="#38BDF8"/><path d="M359.1,83.0 A90,90 0 0 1 364.0,92.8 L334.6,105.3 A58,58 0 0 0 331.4,99.0 Z" fill="#38BDF8"/><path d="M371.2,128.0 A90,90 0 0 1 370.5,139.0 L338.8,135.1 A58,58 0 0 0 339.2,128.0 Z" fill="#38BDF8"/><path d="M359.1,173.0 A90,90 0 0 1 353.1,182.2 L327.5,162.9 A58,58 0 0 0 331.4,157.0 Z" fill="#38BDF8"/><path d="M326.2,205.9 A90,90 0 0 1 316.4,210.8 L303.9,181.4 A58,58 0 0 0 310.2,178.2 Z" fill="#38BDF8"/><path d="M281.2,218.0 A90,90 0 0 1 270.2,217.3 L274.1,185.6 A58,58 0 0 0 281.2,186.0 Z" fill="#38BDF8"/><path d="M236.2,205.9 A90,90 0 0 1 227.0,199.9 L246.3,174.3 A58,58 0 0 0 252.2,178.2 Z" fill="#38BDF8"/><path d="M203.3,173.0 A90,90 0 0 1 198.4,163.2 L227.8,150.7 A58,58 0 0 0 231.0,157.0 Z" fill="#38BDF8"/><path d="M191.2,128.0 A90,90 0 0 1 191.9,117.0 L223.6,120.9 A58,58 0 0 0 223.2,128.0 Z" fill="#38BDF8"/><path d="M203.3,83.0 A90,90 0 0 1 209.3,73.8 L234.9,93.1 A58,58 0 0 0 231.0,99.0 Z" fill="#38BDF8"/><path d="M236.2,50.1 A90,90 0 0 1 246.0,45.2 L258.5,74.6 A58,58 0 0 0 252.2,77.8 Z" fill="#38BDF8"/></g>
<g class="holo" style="animation-delay:1.38s">
  <polygon points="243.2,194 319.2,194 301.2,128 261.2,128" fill="url(#beam1)" class="flick" style="animation-delay:0.7s"/>
  <ellipse cx="281.2" cy="194" rx="40" ry="7" fill="#38BDF8" fill-opacity=".12" stroke="#38BDF8" stroke-width="1.4" filter="url(#glow)"/>
  <ellipse cx="281.2" cy="194" rx="40" ry="7" fill="none" stroke="#38BDF8" class="pedping" style="animation-delay:2.08s"/>
</g>
<g class="pop" style="animation-delay:0.38s">
  <circle cx="281.2" cy="128" r="72" fill="none" stroke="#38BDF8" stroke-opacity=".45" stroke-dasharray="1 7" class="spin"/>
  <g class="orb" style="transform-origin:281.2px 128px;animation-duration:9.5s"><circle cx="281.2" cy="56" r="3" fill="#38BDF8" filter="url(#glow)"/></g>
  <polygon points="281.2,69.0 332.3,98.5 332.3,157.5 281.2,187.0 230.1,157.5 230.1,98.5" fill="none" stroke="#38BDF8" stroke-opacity=".25"/>
  <polygon points="281.2,78.0 324.5,103.0 324.5,153.0 281.2,178.0 237.9,153.0 237.9,103.0" fill="#060B18"/>
  <polygon points="281.2,78.0 324.5,103.0 324.5,153.0 281.2,178.0 237.9,153.0 237.9,103.0" fill="#38BDF8" fill-opacity=".1" stroke="#38BDF8" stroke-width="2" class="draw" style="animation-delay:0.38s" filter="url(#glow)"/>
  <polygon points="281.2,78.0 324.5,103.0 324.5,153.0 281.2,178.0 237.9,153.0 237.9,103.0" fill="none" stroke="#38BDF8" stroke-width="5" stroke-opacity=".35" class="pulse" style="animation-delay:1.98s"/>
  <g clip-path="url(#hx1)"><rect x="171.2" y="78" width="40" height="100" fill="url(#glint)" transform="skewX(-18)" class="glint" style="animation-delay:2.78s"/></g>
  <text x="281.2" y="112" class="small" text-anchor="middle" style="letter-spacing:2px;fill:#38BDF8">RANK</text>
  <g clip-path="url(#slot1)"><g class="reel" style="--h:252px;animation-delay:0.68s"><text x="281.2" y="146" text-anchor="middle" class="rk" style="font-size:30px">#9</text><text x="281.2" y="110" text-anchor="middle" class="rk" style="font-size:30px">#5</text><text x="281.2" y="74" text-anchor="middle" class="rk" style="font-size:30px">#8</text><text x="281.2" y="38" text-anchor="middle" class="rk" style="font-size:30px">#1</text><text x="281.2" y="2" text-anchor="middle" class="rk" style="font-size:30px">#4</text><text x="281.2" y="-34" text-anchor="middle" class="rk" style="font-size:30px">#7</text><text x="281.2" y="-70" text-anchor="middle" class="rk" style="font-size:30px">#0</text><text x="281.2" y="-106" text-anchor="middle" class="rk" style="font-size:30px">#3</text></g></g>
  <circle cx="259.2" cy="84" r="1.6" fill="#38BDF8" class="spark" style="animation-delay:1.58s"/><circle cx="273.2" cy="84" r="2.1" fill="#38BDF8" class="spark" style="animation-delay:2.13s"/><circle cx="287.2" cy="84" r="2.6" fill="#38BDF8" class="spark" style="animation-delay:2.68s"/><circle cx="299.2" cy="84" r="1.6" fill="#38BDF8" class="spark" style="animation-delay:3.23s"/><circle cx="309.2" cy="84" r="2.1" fill="#38BDF8" class="spark" style="animation-delay:3.78s"/><circle cx="251.2" cy="84" r="2.6" fill="#38BDF8" class="spark" style="animation-delay:4.33s"/>
  <rect x="278.7" y="126.8" width="5" height="2.4" rx="1" fill="#A78BFA" class="conf" style="--dx:15px;--dy:-76px;animation-delay:2.28s"/><rect x="278.7" y="126.8" width="5" height="2.4" rx="1" fill="#E879F9" class="conf" style="--dx:66px;--dy:-61px;animation-delay:2.31s"/><rect x="278.7" y="126.8" width="5" height="2.4" rx="1" fill="#A3E635" class="conf" style="--dx:76px;--dy:-9px;animation-delay:2.34s"/><rect x="278.7" y="126.8" width="5" height="2.4" rx="1" fill="#FBBF24" class="conf" style="--dx:79px;--dy:44px;animation-delay:2.37s"/><rect x="278.7" y="126.8" width="5" height="2.4" rx="1" fill="#FB7185" class="conf" style="--dx:33px;--dy:70px;animation-delay:2.40s"/><rect x="278.7" y="126.8" width="5" height="2.4" rx="1" fill="#2DD4BF" class="conf" style="--dx:-17px;--dy:88px;animation-delay:2.43s"/><rect x="278.7" y="126.8" width="5" height="2.4" rx="1" fill="#FB923C" class="conf" style="--dx:-56px;--dy:53px;animation-delay:2.46s"/><rect x="278.7" y="126.8" width="5" height="2.4" rx="1" fill="#38BDF8" class="conf" style="--dx:-89px;--dy:11px;animation-delay:2.49s"/><rect x="278.7" y="126.8" width="5" height="2.4" rx="1" fill="#A78BFA" class="conf" style="--dx:-67px;--dy:-37px;animation-delay:2.52s"/><rect x="278.7" y="126.8" width="5" height="2.4" rx="1" fill="#E879F9" class="conf" style="--dx:-38px;--dy:-82px;animation-delay:2.55s"/>
</g>
<g class="rise" style="animation-delay:0.88s">
  <text x="281.2" y="226" class="note strong" text-anchor="middle">Kaggle Agri Image</text>
  <text x="281.2" y="244" class="note" text-anchor="middle">Super-Resolution</text>
  <text x="281.2" y="264" class="small" text-anchor="middle" style="fill:#38BDF8">30-BLOCK RCAN</text>
</g>
<g class="rays" style="transform-origin:450.0px 128px;animation-duration:32s"><path d="M450.0,38.0 A90,90 0 0 1 461.0,38.7 L457.1,70.4 A58,58 0 0 0 450.0,70.0 Z" fill="#E879F9"/><path d="M495.0,50.1 A90,90 0 0 1 504.2,56.1 L484.9,81.7 A58,58 0 0 0 479.0,77.8 Z" fill="#E879F9"/><path d="M527.9,83.0 A90,90 0 0 1 532.8,92.8 L503.4,105.3 A58,58 0 0 0 500.2,99.0 Z" fill="#E879F9"/><path d="M540.0,128.0 A90,90 0 0 1 539.3,139.0 L507.6,135.1 A58,58 0 0 0 508.0,128.0 Z" fill="#E879F9"/><path d="M527.9,173.0 A90,90 0 0 1 521.9,182.2 L496.3,162.9 A58,58 0 0 0 500.2,157.0 Z" fill="#E879F9"/><path d="M495.0,205.9 A90,90 0 0 1 485.2,210.8 L472.7,181.4 A58,58 0 0 0 479.0,178.2 Z" fill="#E879F9"/><path d="M450.0,218.0 A90,90 0 0 1 439.0,217.3 L442.9,185.6 A58,58 0 0 0 450.0,186.0 Z" fill="#E879F9"/><path d="M405.0,205.9 A90,90 0 0 1 395.8,199.9 L415.1,174.3 A58,58 0 0 0 421.0,178.2 Z" fill="#E879F9"/><path d="M372.1,173.0 A90,90 0 0 1 367.2,163.2 L396.6,150.7 A58,58 0 0 0 399.8,157.0 Z" fill="#E879F9"/><path d="M360.0,128.0 A90,90 0 0 1 360.7,117.0 L392.4,120.9 A58,58 0 0 0 392.0,128.0 Z" fill="#E879F9"/><path d="M372.1,83.0 A90,90 0 0 1 378.1,73.8 L403.7,93.1 A58,58 0 0 0 399.8,99.0 Z" fill="#E879F9"/><path d="M405.0,50.1 A90,90 0 0 1 414.8,45.2 L427.3,74.6 A58,58 0 0 0 421.0,77.8 Z" fill="#E879F9"/></g>
<g class="holo" style="animation-delay:1.56s">
  <polygon points="412.0,194 488.0,194 470.0,128 430.0,128" fill="url(#beam2)" class="flick" style="animation-delay:1.4s"/>
  <ellipse cx="450.0" cy="194" rx="40" ry="7" fill="#E879F9" fill-opacity=".12" stroke="#E879F9" stroke-width="1.4" filter="url(#glow)"/>
  <ellipse cx="450.0" cy="194" rx="40" ry="7" fill="none" stroke="#E879F9" class="pedping" style="animation-delay:2.56s"/>
</g>
<g class="pop" style="animation-delay:0.56s">
  <circle cx="450.0" cy="128" r="72" fill="none" stroke="#E879F9" stroke-opacity=".45" stroke-dasharray="1 7" class="spin-r"/>
  <g class="orb" style="transform-origin:450.0px 128px;animation-duration:11.0s"><circle cx="450.0" cy="56" r="3" fill="#E879F9" filter="url(#glow)"/></g>
  <polygon points="450.0,69.0 501.1,98.5 501.1,157.5 450.0,187.0 398.9,157.5 398.9,98.5" fill="none" stroke="#E879F9" stroke-opacity=".25"/>
  <polygon points="450.0,78.0 493.3,103.0 493.3,153.0 450.0,178.0 406.7,153.0 406.7,103.0" fill="#060B18"/>
  <polygon points="450.0,78.0 493.3,103.0 493.3,153.0 450.0,178.0 406.7,153.0 406.7,103.0" fill="#E879F9" fill-opacity=".1" stroke="#E879F9" stroke-width="2" class="draw" style="animation-delay:0.56s" filter="url(#glow)"/>
  <polygon points="450.0,78.0 493.3,103.0 493.3,153.0 450.0,178.0 406.7,153.0 406.7,103.0" fill="none" stroke="#E879F9" stroke-width="5" stroke-opacity=".35" class="pulse" style="animation-delay:2.16s"/>
  <g clip-path="url(#hx2)"><rect x="340.0" y="78" width="40" height="100" fill="url(#glint)" transform="skewX(-18)" class="glint" style="animation-delay:3.36s"/></g>
  <text x="450.0" y="112" class="small" text-anchor="middle" style="letter-spacing:2px;fill:#E879F9">TOP</text>
  <g clip-path="url(#slot2)"><g class="reel" style="--h:252px;animation-delay:0.86s"><text x="450.0" y="146" text-anchor="middle" class="rk" style="font-size:30px">10</text><text x="450.0" y="110" text-anchor="middle" class="rk" style="font-size:30px">72</text><text x="450.0" y="74" text-anchor="middle" class="rk" style="font-size:30px">05</text><text x="450.0" y="38" text-anchor="middle" class="rk" style="font-size:30px">38</text><text x="450.0" y="2" text-anchor="middle" class="rk" style="font-size:30px">61</text><text x="450.0" y="-34" text-anchor="middle" class="rk" style="font-size:30px">94</text><text x="450.0" y="-70" text-anchor="middle" class="rk" style="font-size:30px">27</text><text x="450.0" y="-106" text-anchor="middle" class="rk" style="font-size:30px">50</text></g></g>
  <circle cx="428.0" cy="84" r="1.6" fill="#E879F9" class="spark" style="animation-delay:1.76s"/><circle cx="442.0" cy="84" r="2.1" fill="#E879F9" class="spark" style="animation-delay:2.31s"/><circle cx="456.0" cy="84" r="2.6" fill="#E879F9" class="spark" style="animation-delay:2.86s"/><circle cx="468.0" cy="84" r="1.6" fill="#E879F9" class="spark" style="animation-delay:3.41s"/><circle cx="478.0" cy="84" r="2.1" fill="#E879F9" class="spark" style="animation-delay:3.96s"/><circle cx="420.0" cy="84" r="2.6" fill="#E879F9" class="spark" style="animation-delay:4.51s"/>
  <rect x="447.5" y="126.8" width="5" height="2.4" rx="1" fill="#E879F9" class="conf" style="--dx:31px;--dy:-78px;animation-delay:2.46s"/><rect x="447.5" y="126.8" width="5" height="2.4" rx="1" fill="#A3E635" class="conf" style="--dx:60px;--dy:-38px;animation-delay:2.49s"/><rect x="447.5" y="126.8" width="5" height="2.4" rx="1" fill="#FBBF24" class="conf" style="--dx:84px;--dy:6px;animation-delay:2.52s"/><rect x="447.5" y="126.8" width="5" height="2.4" rx="1" fill="#FB7185" class="conf" style="--dx:54px;--dy:46px;animation-delay:2.55s"/><rect x="447.5" y="126.8" width="5" height="2.4" rx="1" fill="#2DD4BF" class="conf" style="--dx:20px;--dy:82px;animation-delay:2.58s"/><rect x="447.5" y="126.8" width="5" height="2.4" rx="1" fill="#FB923C" class="conf" style="--dx:-27px;--dy:66px;animation-delay:2.61s"/><rect x="447.5" y="126.8" width="5" height="2.4" rx="1" fill="#38BDF8" class="conf" style="--dx:-71px;--dy:45px;animation-delay:2.64s"/><rect x="447.5" y="126.8" width="5" height="2.4" rx="1" fill="#A78BFA" class="conf" style="--dx:-71px;--dy:-5px;animation-delay:2.67s"/><rect x="447.5" y="126.8" width="5" height="2.4" rx="1" fill="#E879F9" class="conf" style="--dx:-64px;--dy:-54px;animation-delay:2.70s"/><rect x="447.5" y="126.8" width="5" height="2.4" rx="1" fill="#A3E635" class="conf" style="--dx:-17px;--dy:-69px;animation-delay:2.73s"/>
</g>
<g class="rise" style="animation-delay:1.06s">
  <text x="450.0" y="226" class="note strong" text-anchor="middle">TrackShift</text>
  <text x="450.0" y="244" class="note" text-anchor="middle">Innovation Challenge</text>
  <text x="450.0" y="264" class="small" text-anchor="middle" style="fill:#E879F9">TYREMIND</text>
</g>
<g class="rays" style="transform-origin:618.8px 128px;animation-duration:35s"><path d="M618.8,38.0 A90,90 0 0 1 629.8,38.7 L625.9,70.4 A58,58 0 0 0 618.8,70.0 Z" fill="#A3E635"/><path d="M663.8,50.1 A90,90 0 0 1 673.0,56.1 L653.7,81.7 A58,58 0 0 0 647.8,77.8 Z" fill="#A3E635"/><path d="M696.7,83.0 A90,90 0 0 1 701.6,92.8 L672.2,105.3 A58,58 0 0 0 669.0,99.0 Z" fill="#A3E635"/><path d="M708.8,128.0 A90,90 0 0 1 708.1,139.0 L676.4,135.1 A58,58 0 0 0 676.8,128.0 Z" fill="#A3E635"/><path d="M696.7,173.0 A90,90 0 0 1 690.7,182.2 L665.1,162.9 A58,58 0 0 0 669.0,157.0 Z" fill="#A3E635"/><path d="M663.8,205.9 A90,90 0 0 1 654.0,210.8 L641.5,181.4 A58,58 0 0 0 647.8,178.2 Z" fill="#A3E635"/><path d="M618.8,218.0 A90,90 0 0 1 607.8,217.3 L611.7,185.6 A58,58 0 0 0 618.8,186.0 Z" fill="#A3E635"/><path d="M573.8,205.9 A90,90 0 0 1 564.6,199.9 L583.9,174.3 A58,58 0 0 0 589.8,178.2 Z" fill="#A3E635"/><path d="M540.9,173.0 A90,90 0 0 1 536.0,163.2 L565.4,150.7 A58,58 0 0 0 568.6,157.0 Z" fill="#A3E635"/><path d="M528.8,128.0 A90,90 0 0 1 529.5,117.0 L561.2,120.9 A58,58 0 0 0 560.8,128.0 Z" fill="#A3E635"/><path d="M540.9,83.0 A90,90 0 0 1 546.9,73.8 L572.5,93.1 A58,58 0 0 0 568.6,99.0 Z" fill="#A3E635"/><path d="M573.8,50.1 A90,90 0 0 1 583.6,45.2 L596.1,74.6 A58,58 0 0 0 589.8,77.8 Z" fill="#A3E635"/></g>
<g class="holo" style="animation-delay:1.74s">
  <polygon points="580.8,194 656.8,194 638.8,128 598.8,128" fill="url(#beam3)" class="flick" style="animation-delay:2.1s"/>
  <ellipse cx="618.8" cy="194" rx="40" ry="7" fill="#A3E635" fill-opacity=".12" stroke="#A3E635" stroke-width="1.4" filter="url(#glow)"/>
  <ellipse cx="618.8" cy="194" rx="40" ry="7" fill="none" stroke="#A3E635" class="pedping" style="animation-delay:3.04s"/>
</g>
<g class="pop" style="animation-delay:0.74s">
  <circle cx="618.8" cy="128" r="72" fill="none" stroke="#A3E635" stroke-opacity=".45" stroke-dasharray="1 7" class="spin"/>
  <g class="orb" style="transform-origin:618.8px 128px;animation-duration:12.5s"><circle cx="618.8" cy="56" r="3" fill="#A3E635" filter="url(#glow)"/></g>
  <polygon points="618.8,69.0 669.9,98.5 669.9,157.5 618.8,187.0 567.7,157.5 567.7,98.5" fill="none" stroke="#A3E635" stroke-opacity=".25"/>
  <polygon points="618.8,78.0 662.1,103.0 662.1,153.0 618.8,178.0 575.5,153.0 575.5,103.0" fill="#060B18"/>
  <polygon points="618.8,78.0 662.1,103.0 662.1,153.0 618.8,178.0 575.5,153.0 575.5,103.0" fill="#A3E635" fill-opacity=".1" stroke="#A3E635" stroke-width="2" class="draw" style="animation-delay:0.74s" filter="url(#glow)"/>
  <polygon points="618.8,78.0 662.1,103.0 662.1,153.0 618.8,178.0 575.5,153.0 575.5,103.0" fill="none" stroke="#A3E635" stroke-width="5" stroke-opacity=".35" class="pulse" style="animation-delay:2.34s"/>
  <g clip-path="url(#hx3)"><rect x="508.8" y="78" width="40" height="100" fill="url(#glint)" transform="skewX(-18)" class="glint" style="animation-delay:3.94s"/></g>
  <text x="618.8" y="112" class="small" text-anchor="middle" style="letter-spacing:2px;fill:#A3E635">TOP</text>
  <g clip-path="url(#slot3)"><g class="reel" style="--h:252px;animation-delay:1.04s"><text x="618.8" y="146" text-anchor="middle" class="rk" style="font-size:30px">40</text><text x="618.8" y="110" text-anchor="middle" class="rk" style="font-size:30px">49</text><text x="618.8" y="74" text-anchor="middle" class="rk" style="font-size:30px">72</text><text x="618.8" y="38" text-anchor="middle" class="rk" style="font-size:30px">05</text><text x="618.8" y="2" text-anchor="middle" class="rk" style="font-size:30px">38</text><text x="618.8" y="-34" text-anchor="middle" class="rk" style="font-size:30px">61</text><text x="618.8" y="-70" text-anchor="middle" class="rk" style="font-size:30px">94</text><text x="618.8" y="-106" text-anchor="middle" class="rk" style="font-size:30px">27</text></g></g>
  <circle cx="596.8" cy="84" r="1.6" fill="#A3E635" class="spark" style="animation-delay:1.94s"/><circle cx="610.8" cy="84" r="2.1" fill="#A3E635" class="spark" style="animation-delay:2.49s"/><circle cx="624.8" cy="84" r="2.6" fill="#A3E635" class="spark" style="animation-delay:3.04s"/><circle cx="636.8" cy="84" r="1.6" fill="#A3E635" class="spark" style="animation-delay:3.59s"/><circle cx="646.8" cy="84" r="2.1" fill="#A3E635" class="spark" style="animation-delay:4.14s"/><circle cx="588.8" cy="84" r="2.6" fill="#A3E635" class="spark" style="animation-delay:4.69s"/>
  <rect x="616.3" y="126.8" width="5" height="2.4" rx="1" fill="#A3E635" class="conf" style="--dx:50px;--dy:-76px;animation-delay:2.64s"/><rect x="616.3" y="126.8" width="5" height="2.4" rx="1" fill="#FBBF24" class="conf" style="--dx:73px;--dy:-28px;animation-delay:2.67s"/><rect x="616.3" y="126.8" width="5" height="2.4" rx="1" fill="#FB7185" class="conf" style="--dx:88px;--dy:24px;animation-delay:2.70s"/><rect x="616.3" y="126.8" width="5" height="2.4" rx="1" fill="#2DD4BF" class="conf" style="--dx:49px;--dy:61px;animation-delay:2.73s"/><rect x="616.3" y="126.8" width="5" height="2.4" rx="1" fill="#FB923C" class="conf" style="--dx:5px;--dy:91px;animation-delay:2.76s"/><rect x="616.3" y="126.8" width="5" height="2.4" rx="1" fill="#38BDF8" class="conf" style="--dx:-42px;--dy:65px;animation-delay:2.79s"/><rect x="616.3" y="126.8" width="5" height="2.4" rx="1" fill="#A78BFA" class="conf" style="--dx:-85px;--dy:33px;animation-delay:2.82s"/><rect x="616.3" y="126.8" width="5" height="2.4" rx="1" fill="#E879F9" class="conf" style="--dx:-75px;--dy:-20px;animation-delay:2.85s"/><rect x="616.3" y="126.8" width="5" height="2.4" rx="1" fill="#A3E635" class="conf" style="--dx:-57px;--dy:-71px;animation-delay:2.88s"/><rect x="616.3" y="126.8" width="5" height="2.4" rx="1" fill="#FBBF24" class="conf" style="--dx:-4px;--dy:-78px;animation-delay:2.91s"/>
</g>
<g class="rise" style="animation-delay:1.24s">
  <text x="618.8" y="226" class="note strong" text-anchor="middle">IIT Delhi</text>
  <text x="618.8" y="244" class="note" text-anchor="middle">Innov8 Challenge</text>
  <text x="618.8" y="264" class="small" text-anchor="middle" style="fill:#A3E635"></text>
</g>
<g class="rays" style="transform-origin:787.6px 128px;animation-duration:38s"><path d="M787.6,38.0 A90,90 0 0 1 798.6,38.7 L794.7,70.4 A58,58 0 0 0 787.6,70.0 Z" fill="#A78BFA"/><path d="M832.6,50.1 A90,90 0 0 1 841.8,56.1 L822.5,81.7 A58,58 0 0 0 816.6,77.8 Z" fill="#A78BFA"/><path d="M865.5,83.0 A90,90 0 0 1 870.4,92.8 L841.0,105.3 A58,58 0 0 0 837.8,99.0 Z" fill="#A78BFA"/><path d="M877.6,128.0 A90,90 0 0 1 876.9,139.0 L845.2,135.1 A58,58 0 0 0 845.6,128.0 Z" fill="#A78BFA"/><path d="M865.5,173.0 A90,90 0 0 1 859.5,182.2 L833.9,162.9 A58,58 0 0 0 837.8,157.0 Z" fill="#A78BFA"/><path d="M832.6,205.9 A90,90 0 0 1 822.8,210.8 L810.3,181.4 A58,58 0 0 0 816.6,178.2 Z" fill="#A78BFA"/><path d="M787.6,218.0 A90,90 0 0 1 776.6,217.3 L780.5,185.6 A58,58 0 0 0 787.6,186.0 Z" fill="#A78BFA"/><path d="M742.6,205.9 A90,90 0 0 1 733.4,199.9 L752.7,174.3 A58,58 0 0 0 758.6,178.2 Z" fill="#A78BFA"/><path d="M709.7,173.0 A90,90 0 0 1 704.8,163.2 L734.2,150.7 A58,58 0 0 0 737.4,157.0 Z" fill="#A78BFA"/><path d="M697.6,128.0 A90,90 0 0 1 698.3,117.0 L730.0,120.9 A58,58 0 0 0 729.6,128.0 Z" fill="#A78BFA"/><path d="M709.7,83.0 A90,90 0 0 1 715.7,73.8 L741.3,93.1 A58,58 0 0 0 737.4,99.0 Z" fill="#A78BFA"/><path d="M742.6,50.1 A90,90 0 0 1 752.4,45.2 L764.9,74.6 A58,58 0 0 0 758.6,77.8 Z" fill="#A78BFA"/></g>
<g class="holo" style="animation-delay:1.92s">
  <polygon points="749.6,194 825.6,194 807.6,128 767.6,128" fill="url(#beam4)" class="flick" style="animation-delay:2.8s"/>
  <ellipse cx="787.6" cy="194" rx="40" ry="7" fill="#A78BFA" fill-opacity=".12" stroke="#A78BFA" stroke-width="1.4" filter="url(#glow)"/>
  <ellipse cx="787.6" cy="194" rx="40" ry="7" fill="none" stroke="#A78BFA" class="pedping" style="animation-delay:3.52s"/>
</g>
<g class="pop" style="animation-delay:0.92s">
  <circle cx="787.6" cy="128" r="72" fill="none" stroke="#A78BFA" stroke-opacity=".45" stroke-dasharray="1 7" class="spin-r"/>
  <g class="orb" style="transform-origin:787.6px 128px;animation-duration:14.0s"><circle cx="787.6" cy="56" r="3" fill="#A78BFA" filter="url(#glow)"/></g>
  <polygon points="787.6,69.0 838.7,98.5 838.7,157.5 787.6,187.0 736.5,157.5 736.5,98.5" fill="none" stroke="#A78BFA" stroke-opacity=".25"/>
  <polygon points="787.6,78.0 830.9,103.0 830.9,153.0 787.6,178.0 744.3,153.0 744.3,103.0" fill="#060B18"/>
  <polygon points="787.6,78.0 830.9,103.0 830.9,153.0 787.6,178.0 744.3,153.0 744.3,103.0" fill="#A78BFA" fill-opacity=".1" stroke="#A78BFA" stroke-width="2" class="draw" style="animation-delay:0.92s" filter="url(#glow)"/>
  <polygon points="787.6,78.0 830.9,103.0 830.9,153.0 787.6,178.0 744.3,153.0 744.3,103.0" fill="none" stroke="#A78BFA" stroke-width="5" stroke-opacity=".35" class="pulse" style="animation-delay:2.52s"/>
  <g clip-path="url(#hx4)"><rect x="677.6" y="78" width="40" height="100" fill="url(#glint)" transform="skewX(-18)" class="glint" style="animation-delay:4.52s"/></g>
  <text x="787.6" y="112" class="small" text-anchor="middle" style="letter-spacing:2px;fill:#A78BFA">TOP</text>
  <g clip-path="url(#slot4)"><g class="reel" style="--h:252px;animation-delay:1.22s"><text x="787.6" y="146" text-anchor="middle" class="rk" style="font-size:24px">1.5K</text><text x="787.6" y="110" text-anchor="middle" class="rk" style="font-size:24px">1.1K</text><text x="787.6" y="74" text-anchor="middle" class="rk" style="font-size:24px">4.4K</text><text x="787.6" y="38" text-anchor="middle" class="rk" style="font-size:24px">7.7K</text><text x="787.6" y="2" text-anchor="middle" class="rk" style="font-size:24px">0.0K</text><text x="787.6" y="-34" text-anchor="middle" class="rk" style="font-size:24px">3.3K</text><text x="787.6" y="-70" text-anchor="middle" class="rk" style="font-size:24px">6.6K</text><text x="787.6" y="-106" text-anchor="middle" class="rk" style="font-size:24px">9.9K</text></g></g>
  <circle cx="765.6" cy="84" r="1.6" fill="#A78BFA" class="spark" style="animation-delay:2.12s"/><circle cx="779.6" cy="84" r="2.1" fill="#A78BFA" class="spark" style="animation-delay:2.67s"/><circle cx="793.6" cy="84" r="2.6" fill="#A78BFA" class="spark" style="animation-delay:3.22s"/><circle cx="805.6" cy="84" r="1.6" fill="#A78BFA" class="spark" style="animation-delay:3.77s"/><circle cx="815.6" cy="84" r="2.1" fill="#A78BFA" class="spark" style="animation-delay:4.32s"/><circle cx="757.6" cy="84" r="2.6" fill="#A78BFA" class="spark" style="animation-delay:4.87s"/>
  <rect x="785.1" y="126.8" width="5" height="2.4" rx="1" fill="#FBBF24" class="conf" style="--dx:50px;--dy:-52px;animation-delay:2.82s"/><rect x="785.1" y="126.8" width="5" height="2.4" rx="1" fill="#FB7185" class="conf" style="--dx:84px;--dy:-15px;animation-delay:2.85s"/><rect x="785.1" y="126.8" width="5" height="2.4" rx="1" fill="#2DD4BF" class="conf" style="--dx:65px;--dy:32px;animation-delay:2.88s"/><rect x="785.1" y="126.8" width="5" height="2.4" rx="1" fill="#FB923C" class="conf" style="--dx:40px;--dy:75px;animation-delay:2.91s"/><rect x="785.1" y="126.8" width="5" height="2.4" rx="1" fill="#38BDF8" class="conf" style="--dx:-10px;--dy:71px;animation-delay:2.94s"/><rect x="785.1" y="126.8" width="5" height="2.4" rx="1" fill="#A78BFA" class="conf" style="--dx:-59px;--dy:61px;animation-delay:2.97s"/><rect x="785.1" y="126.8" width="5" height="2.4" rx="1" fill="#E879F9" class="conf" style="--dx:-71px;--dy:13px;animation-delay:3.00s"/><rect x="785.1" y="126.8" width="5" height="2.4" rx="1" fill="#A3E635" class="conf" style="--dx:-76px;--dy:-37px;animation-delay:3.03s"/><rect x="785.1" y="126.8" width="5" height="2.4" rx="1" fill="#FBBF24" class="conf" style="--dx:-34px;--dy:-64px;animation-delay:3.06s"/><rect x="785.1" y="126.8" width="5" height="2.4" rx="1" fill="#FB7185" class="conf" style="--dx:12px;--dy:-84px;animation-delay:3.09s"/>
</g>
<g class="rise" style="animation-delay:1.42s">
  <text x="787.6" y="226" class="note strong" text-anchor="middle">Amazon</text>
  <text x="787.6" y="244" class="note" text-anchor="middle">ML Challenge</text>
  <text x="787.6" y="264" class="small" text-anchor="middle" style="fill:#A78BFA"></text>
</g>
<rect x="1" y="1" width="898" height="298" rx="15" fill="none" stroke="url(#link)" stroke-width="2" pathLength="100" class="runa" filter="url(#glow)"/><rect x="1" y="1" width="898" height="298" rx="15" fill="none" stroke="#FFFFFF" stroke-width="1.3" pathLength="100" class="runa" style="animation-delay:-4s"/>
</svg>
