<svg xmlns="http://www.w3.org/2000/svg" width="216" height="64" viewBox="0 0 216 64" role="img" aria-label="GitHub: 1 followers · follow ↗">
<defs>
  <linearGradient id="bg" x1="0" y1="0" x2="1" y2="1"><stop offset="0" stop-color="#060B18"/><stop offset="1" stop-color="#22264C"/></linearGradient>
  <linearGradient id="gl" x1="0" y1="0" x2="1" y2="0"><stop offset="0" stop-color="#FFFFFF" stop-opacity="0"/><stop offset=".5" stop-color="#FFFFFF" stop-opacity=".22"/><stop offset="1" stop-color="#FFFFFF" stop-opacity="0"/></linearGradient>
  <filter id="glow" x="-50%" y="-50%" width="200%" height="200%"><feGaussianBlur stdDeviation="2.2" result="b"/><feMerge><feMergeNode in="b"/><feMergeNode in="SourceGraphic"/></feMerge></filter>
  <clipPath id="c"><rect width="216" height="64" rx="14"/></clipPath>
</defs>
<style>
  .lb { font: 700 13px ui-monospace, SFMono-Regular, "JetBrains Mono", "Cascadia Code", Consolas, "Liberation Mono", monospace; letter-spacing: 2.4px; fill: #E8EEF9; }
  .sb { font: 10.5px ui-monospace, SFMono-Regular, "JetBrains Mono", "Cascadia Code", Consolas, "Liberation Mono", monospace; fill: #8A97B4; }
  .run { stroke-dasharray: 16 84; animation: run 4.5s linear infinite; } @keyframes run { from { stroke-dashoffset: 100; } to { stroke-dashoffset: 0; } }
  .sp { transform-box: fill-box; transform-origin: center; animation: sp 8s linear infinite; } @keyframes sp { to { transform: rotate(360deg); } }
  .gl { animation: gls 4s ease-in-out 1.8s infinite; } @keyframes gls { 0% { transform: translateX(-80px) skewX(-20deg); } 40%, 100% { transform: translateX(256px) skewX(-20deg); } }
  .pl { animation: pl 2.4s ease-in-out infinite; } @keyframes pl { 50% { opacity: .55; } }
  .gt { animation: gt 7s steps(1, end) 4.5s infinite; } @keyframes gt { 0%, 95%, 100% { opacity: 1; transform: none; } 96% { opacity: .3; transform: translateX(2px); } 97% { opacity: 1; transform: translateX(-2px); } }
  @media (prefers-reduced-motion: reduce) { * { animation: none !important; } .gl { display: none; } }
</style>
<g clip-path="url(#c)">
  <rect width="216" height="64" fill="url(#bg)"/>
  <rect x="0" y="0" width="50" height="64" fill="url(#gl)" class="gl"/>
</g>
<rect x="1" y="1" width="214" height="62" rx="13" fill="none" stroke="#A78BFA" stroke-opacity=".45"/>
<rect x="1" y="1" width="214" height="62" rx="13" fill="none" stroke="#A78BFA" stroke-width="2" pathLength="100" class="run" filter="url(#glow)"/>
<circle cx="32" cy="32" r="19" fill="none" stroke="#A78BFA" stroke-opacity=".6" stroke-dasharray="3 4" class="sp"/>
<circle cx="32" cy="32" r="14" fill="#A78BFA" fill-opacity=".14" class="pl"/>
<g transform="translate(23,23) scale(.75)"><path d="M12 .297c-6.63 0-12 5.373-12 12 0 5.303 3.438 9.8 8.205 11.385.6.113.82-.258.82-.577 0-.285-.01-1.04-.015-2.04-3.338.724-4.042-1.61-4.042-1.61C4.422 18.07 3.633 17.7 3.633 17.7c-1.087-.744.084-.729.084-.729 1.205.084 1.838 1.236 1.838 1.236 1.07 1.835 2.809 1.305 3.495.998.108-.776.417-1.305.76-1.605-2.665-.3-5.466-1.332-5.466-5.93 0-1.31.465-2.38 1.235-3.22-.135-.303-.54-1.523.105-3.176 0 0 1.005-.322 3.3 1.23.96-.267 1.98-.399 3-.405 1.02.006 2.04.138 3 .405 2.28-1.552 3.285-1.23 3.285-1.23.645 1.653.24 2.873.12 3.176.765.84 1.23 1.91 1.23 3.22 0 4.61-2.805 5.625-5.475 5.92.42.36.81 1.096.81 2.22 0 1.606-.015 2.896-.015 3.286 0 .315.21.69.825.57C20.565 22.092 24 17.592 24 12.297c0-6.627-5.373-12-12-12" fill="#A78BFA" filter="url(#glow)"/></g>
<text x="62" y="29" class="lb gt">GITHUB</text>
<text x="62" y="46" class="sb">1 followers · follow ↗</text>
</svg>
